<svg xmlns="http://www.w3.org/2000/svg" width="220" height="64" viewBox="0 0 220 64" role="img" aria-labelledby="title desc">
  <title id="title">Dark Theme</title>
  <desc id="desc">Dark theme logo for technical validation exports.</desc>
  <rect width="220" height="64" rx="14" fill="#0d141d"/>
  <rect x="12" y="12" width="46" height="40" rx="10" fill="#74b2ff"/>
  <path d="M28 24h14c4 0 7 3 7 7 0 3-2 5-4 6 3 1 5 4 5 7 0 5-3 8-9 8H28V24zm8 11h5c2 0 3-1 3-3s-1-2-3-2h-5v5zm0 11h6c2 0 4-1 4-3 0-3-2-4-4-4h-6v7z" fill="#0d141d"/>
  <text x="74" y="30" fill="#eef5ff" font-family="IBM Plex Sans, Aptos, sans-serif" font-size="12" font-weight="700" letter-spacing="2">DARK THEME</text>
  <text x="74" y="46" fill="#b2c3d9" font-family="Aptos, Segoe UI, sans-serif" font-size="11">High-contrast technical previews</text>
</svg>
